<?xml version="1.0" encoding="UTF-8"?>
<svg id="Layer_1" xmlns="http://www.w3.org/2000/svg" version="1.1" viewBox="0 0 1366 768">
  <!-- Generator: Adobe Illustrator 29.1.0, SVG Export Plug-In . SVG Version: 2.1.0 Build 142)  -->
  <defs>
    <style>
      .st0 {
        fill: #fff;
      }
    </style>
  </defs>
  <rect class="st0" x="478" y="263.4" width="18.6" height="298.2"/>
  <path class="st0" d="M179.8,244.7h130.5v38.2c-11.8-12.1-28.3-19.6-46.6-19.6-32.9,0-60,24.3-64.6,55.9-.4,3-.7,6.2-.7,9.3v167.7c0,3.2.2,6.3.7,9.3,4.5,31.6,31.7,55.9,64.6,55.9s34.8-7.5,46.6-19.6v19.6h18.6v-233c0-25.7,20.9-46.6,46.6-46.6s46.6,20.9,46.6,46.6v167.7c0,25.7-20.9,46.6-46.6,46.6v18.6c32.9,0,60-24.3,64.6-55.9.4-3,.7-6.2.7-9.3v-167.7c0-3.2-.2-6.3-.7-9.3-4.5-31.6-31.7-55.9-64.6-55.9s-34.8,7.5-46.6,19.6v-38.2h130.5v-18.6H179.8v18.6ZM310.2,496.3c0,25.7-20.9,46.6-46.6,46.6s-46.6-20.9-46.6-46.6v-167.7c0-25.7,20.9-46.6,46.6-46.6s46.6,20.9,46.6,46.6v167.7Z"/>
  <rect class="st0" x="533.9" y="226.1" width="652.3" height="18.6"/>
  <rect class="st0" x="478" y="207.4" width="37.3" height="37.3"/>
  <path class="st0" d="M599.1,263.4c-32.9,0-60,24.3-64.6,55.9-.4,3-.7,6.2-.7,9.3v18.6c0,3.2.2,6.3.7,9.3,2.8,19.8,14.5,36.7,30.9,46.6,9.8,5.9,21.3,9.3,33.6,9.3,22.5,0,41.3,16,45.7,37.3.6,3,.9,6.1.9,9.3v45.7c-.3.3-.6.6-.9.9-4.3,21.3-23.1,37.3-45.7,37.3s-41.3-16-45.7-37.3c-.6-3-.9-6.1-.9-9.3v-18.6h-18.6v18.6c0,3.2.2,6.3.7,9.3,4.5,31.6,31.7,55.9,64.6,55.9s60-24.3,64.6-55.9c.4-3,.7-6.2.7-9.3v-37.3c0-1.6,0-3.1-.2-4.7-1.5-21.8-13.8-40.6-31.4-51.3-9.8-5.9-21.3-9.3-33.6-9.3s-.7,0-1.1,0c0,0-.1,0-.2,0-25.1-.7-45.3-21.3-45.3-46.6v-18.6c0-25.3,20.2-45.9,45.3-46.6,0,0,.1,0,.2,0,0,0,.2,0,.3,0,.3,0,.6,0,.8,0s.5,0,.8,0c.2,0,.4,0,.6,0,0,0,.1,0,.2,0,.2,0,.4,0,.6,0,.1,0,.3,0,.4,0,.2,0,.4,0,.6,0,.3,0,.5,0,.8,0,.4,0,.8,0,1.2.1.4,0,.8,0,1.1.1.3,0,.7,0,1,.1.4,0,.7.1,1.1.2,0,0,0,0,0,0,.2,0,.4,0,.6.1.2,0,.5,0,.7.1.7.2,1.5.3,2.2.5.4,0,.7.2,1.1.3,1.1.3,2.1.7,3.2,1,.7.3,1.4.5,2.1.8.3.1.7.3,1,.4.7.3,1.3.6,2,1h0c.3.2.7.3,1,.5.3.2.6.4,1,.5.3.2.6.4.9.6.3.2.6.4.9.6.3.2.6.4.9.6.3.2.6.4.9.6.3.2.5.4.8.6.3.2.7.5,1,.7.3.2.5.4.8.6,0,0,0,0,0,0,.3.2.5.4.8.7.2.2.4.3.6.5.1,0,.2.2.3.3.2.2.5.4.7.7.3.2.5.5.8.8h0c.3.3.5.5.8.8.3.3.5.5.8.8.2.2.4.5.6.7.3.3.6.7.9,1.1.2.2.4.5.6.7.2.3.4.5.6.8,0,0,0,0,0,0,.2.2.3.4.5.7,0,0,.1.2.2.3.2.2.3.4.5.7.4.6.8,1.1,1.1,1.7.1.2.2.3.3.5.1.2.2.4.3.6,0,0,0,.2.1.2.2.2.3.5.4.8,0,0,0,.2.1.2.2.3.3.5.4.8,0,0,0,0,0,0,.2.3.3.6.5,1s.3.5.4.8c.1.3.3.6.4.8,0,0,0,0,0,0,.1.2.2.5.3.7,0,.2.2.4.3.7,0,0,0,0,0,0,.1.3.2.6.4.9.2.5.4,1,.6,1.5,0,.2.2.4.2.7.1.3.2.6.3.9,0,.2.1.4.2.6,0,.2.1.4.2.6,0,.1,0,.2,0,.3,0,.3.1.5.2.8.3,1.1.5,2.1.7,3.2,0,.3,0,.5.1.8.1.6.2,1.3.3,1.9,0,.6.1,1.3.2,1.9,0,.4,0,.8,0,1.2,0,.3,0,.7,0,1,0,.5,0,.9,0,1.4v9.3h18.6v-9.3c0-3.2-.2-6.3-.7-9.3-4.5-31.6-31.7-55.9-64.6-55.9Z"/>
  <path class="st0" d="M766.9,263.4c-32.9,0-60,24.3-64.6,55.9-.4,3-.7,6.2-.7,9.3v18.6c0,3.2.2,6.3.7,9.3,2.8,19.8,14.5,36.7,30.9,46.6,9.8,5.9,21.3,9.3,33.6,9.3,22.5,0,41.3,16,45.7,37.3.6,3,.9,6.1.9,9.3v37.3c0,3.2-.3,6.3-.9,9.3-4.3,21.3-23.1,37.3-45.7,37.3s-41.3-16-45.7-37.3c-.6-3-.9-6.1-.9-9.3v-18.6h-18.6v18.6c0,3.2.2,6.3.7,9.3,4.5,31.6,31.7,55.9,64.6,55.9s60-24.3,64.6-55.9c.4-3,.7-6.2.7-9.3v-37.3c0-1.6,0-3.1-.2-4.7-1.5-21.8-13.8-40.6-31.4-51.3-9.8-5.9-21.3-9.3-33.6-9.3s-.9,0-1.4,0c-25.1-.7-45.2-21.3-45.2-46.6v-18.6c0-25.3,20.2-45.9,45.3-46.6,0,0,.1,0,.2,0,0,0,.2,0,.3,0,.3,0,.6,0,.8,0s.5,0,.8,0c.2,0,.4,0,.6,0,0,0,.1,0,.2,0,.2,0,.4,0,.6,0,.1,0,.3,0,.4,0,.2,0,.4,0,.6,0,.3,0,.5,0,.8,0,.4,0,.8,0,1.2.1.4,0,.8,0,1.1.1.3,0,.7,0,1,.1.4,0,.7.1,1.1.2,0,0,0,0,0,0,.2,0,.4,0,.6.1.2,0,.5,0,.7.1.7.2,1.5.3,2.2.5.4,0,.7.2,1.1.3,1.1.3,2.1.7,3.2,1,.7.3,1.4.5,2.1.8.3.1.7.3,1,.4.7.3,1.3.6,2,1h0c.3.2.7.3,1,.5.3.2.6.4,1,.5.3.2.6.4.9.6.3.2.6.4.9.6.3.2.6.4.9.6.3.2.6.4.9.6.3.2.5.4.8.6.3.2.7.5,1,.7.3.2.5.4.8.6,0,0,0,0,0,0,.3.2.5.4.8.7.2.2.4.3.6.5.1,0,.2.2.3.3.2.2.5.4.7.7.3.2.5.5.8.8h0c.3.3.5.5.8.8.3.3.5.5.8.8.2.2.4.5.6.7.3.3.6.7.9,1.1.2.2.4.5.6.7.2.3.4.5.6.8,0,0,0,0,0,0,.2.2.3.4.5.7,0,0,.1.2.2.3.2.2.3.4.5.7.4.6.8,1.1,1.1,1.7.1.2.2.3.3.5.1.2.2.4.3.6,0,0,0,.2.1.2.2.2.3.5.4.8,0,0,0,.2.1.2.2.3.3.5.4.8,0,0,0,0,0,0,.2.3.3.6.5,1s.3.5.4.8c.1.3.3.6.4.8,0,0,0,0,0,0,.1.2.2.5.3.7,0,.2.2.4.3.7,0,0,0,0,0,0,.1.3.2.6.4.9.2.5.4,1,.6,1.5,0,.2.2.4.2.7.1.3.2.6.3.9,0,.2.1.4.2.6,0,.2.1.4.2.6,0,.1,0,.2,0,.3,0,.3.1.5.2.8.3,1.1.5,2.1.7,3.2,0,.3,0,.5.1.8.1.6.2,1.3.3,1.9,0,.6.1,1.3.2,1.9,0,.4,0,.8,0,1.2,0,.3,0,.7,0,1,0,.5,0,.9,0,1.4v9.3h18.6v-9.3c0-3.2-.2-6.3-.7-9.3-4.5-31.6-31.7-55.9-64.6-55.9Z"/>
  <path class="st0" d="M934.6,263.4c-36,0-65.2,29.2-65.2,65.2v167.7c0,1.6,0,3.1.2,4.7,2.4,33.9,30.6,60.6,65.1,60.6s34.8-7.5,46.6-19.6v19.6h18.6v-233c0-36-29.2-65.2-65.2-65.2ZM981.2,496.3c0,25.7-20.9,46.6-46.6,46.6s-46.6-20.9-46.6-46.6v-167.7c0-25.7,20.9-46.6,46.6-46.6s46.6,20.9,46.6,46.6v167.7Z"/>
  <path class="st0" d="M1102.3,263.4c-36,0-65.2,29.2-65.2,65.2v167.7c0,1.6,0,3.1.2,4.7,2.4,33.9,30.6,60.6,65.1,60.6s34.8-7.5,46.6-19.6v19.6h18.6v-233c0-36-29.2-65.2-65.2-65.2ZM1148.9,496.3c0,25.7-20.9,46.6-46.6,46.6s-46.6-20.9-46.6-46.6v-167.7c0-25.7,20.9-46.6,46.6-46.6s46.6,20.9,46.6,46.6v167.7Z"/>
</svg>